<?xml version="1.0" encoding="UTF-8"?>
<svg version="1.1" xmlns="http://www.w3.org/2000/svg" width="48" height="48">
<path d="M0 0 C4.98669007 2.49334503 8.49675474 5.99350949 11 11 C11.07116382 13.37402501 11.08409085 15.75000677 11.0625 18.125 C11.05347656 19.40632813 11.04445312 20.68765625 11.03515625 22.0078125 C11.02355469 22.99523437 11.01195312 23.98265625 11 25 C11.94230469 24.96777344 12.88460937 24.93554688 13.85546875 24.90234375 C17 25 17 25 19.3125 26.5625 C21.59948073 29.86591661 22.06932688 31.97904121 22 36 C20.45711449 39.14362923 19.89509211 40.2276211 17 42 C12.662882 42.77059648 8.42332056 42.82133739 4.02514648 42.72729492 C1.93851685 42.68751938 -0.1417777 42.7066172 -2.22851562 42.73242188 C-12.31587339 42.64856609 -12.31587339 42.64856609 -15.42358398 39.70239258 C-17.24607966 36.57815459 -17.08633167 34.53849299 -16.87890625 30.9921875 C-17.08070152 27.67232975 -19.03120296 25.5654022 -21 23 C-22.70108067 17.89675799 -22.56521247 13.68126566 -20.3125 8.8125 C-15.77692879 0.51336971 -8.86637513 -0.99591109 0 0 Z " fill="#FEBB00" transform="translate(24,3)"/>
<path d="M0 0 C1.9375 1.4375 1.9375 1.4375 3 3 C3 3.66 3 4.32 3 5 C3.9075 4.938125 4.815 4.87625 5.75 4.8125 C9 5 9 5 11.375 6.0625 C13 8 13 8 13.5 11.5 C13 15 13 15 11.34204102 16.69384766 C8.39691726 18.33633823 6.39101317 18.38758945 3.02734375 18.3984375 C1.88072266 18.40230469 0.73410156 18.40617187 -0.44726562 18.41015625 C-1.64029297 18.39855469 -2.83332031 18.38695313 -4.0625 18.375 C-5.25939453 18.38660156 -6.45628906 18.39820312 -7.68945312 18.41015625 C-9.40745117 18.40435547 -9.40745117 18.40435547 -11.16015625 18.3984375 C-12.20824463 18.39505371 -13.25633301 18.39166992 -14.33618164 18.38818359 C-17 18 -17 18 -18.84545898 16.63525391 C-20.47316165 14.3298294 -20.35315835 12.75463516 -20 10 C-18 8 -18 8 -14.875 7.875 C-13.92625 7.91625 -12.9775 7.9575 -12 8 C-11.9175 7.071875 -11.835 6.14375 -11.75 5.1875 C-11 2 -11 2 -9.375 0.0625 C-5.9175022 -1.48427533 -3.61548831 -0.92030612 0 0 Z " fill="#FBFBFA" transform="translate(30,25)"/>
<path d="M0 0 C3.4375 1.875 3.4375 1.875 6 4 C6 4.66 6 5.32 6 6 C6.9075 5.9175 7.815 5.835 8.75 5.75 C12 6 12 6 14.3125 7.5625 C16.59948073 10.86591661 17.06932688 12.97904121 17 17 C15.45711449 20.14362923 14.89509211 21.2276211 12 23 C7.662882 23.77059648 3.42332056 23.82133739 -0.97485352 23.72729492 C-3.06148315 23.68751938 -5.1417777 23.7066172 -7.22851562 23.73242188 C-17.31943022 23.64853652 -17.31943022 23.64853652 -20.42749023 20.68676758 C-22 18 -22 18 -21.9375 14.3125 C-21 11 -21 11 -18 9 C-15.3125 8.875 -15.3125 8.875 -13 9 C-12.938125 8.2575 -12.87625 7.515 -12.8125 6.75 C-10.92626275 0.36581238 -6.11511924 -0.85826235 0 0 Z M-11 7 C-11 8.32 -11 9.64 -11 11 C-11.94875 10.95875 -12.8975 10.9175 -13.875 10.875 C-17.10244856 10.65026182 -17.10244856 10.65026182 -19 13 C-18.83582968 16.56592619 -18.83582968 16.56592619 -18 20 C-13.67126724 22.16436638 -7.87960518 21.22965944 -3.125 21.25 C-1.32869141 21.2809375 -1.32869141 21.2809375 0.50390625 21.3125 C2.23060547 21.32023437 2.23060547 21.32023437 3.9921875 21.328125 C5.04776855 21.3374707 6.10334961 21.34681641 7.19091797 21.35644531 C10.39080575 20.95041053 11.75878221 20.29871881 14 18 C14.66666667 14.5 14.66666667 14.5 14 11 C12.48105194 8.90235835 12.48105194 8.90235835 10 8 C6.83267579 7.74913276 6.83267579 7.74913276 4 8 C3.731875 7.38125 3.46375 6.7625 3.1875 6.125 C2.04443152 3.7004767 2.04443152 3.7004767 -1 2 C-5.99721459 1.07946047 -7.96580191 3.18557954 -11 7 Z " fill="#807A68" transform="translate(29,22)"/>
<path d="M0 0 C0.33 0 0.66 0 1 0 C0.5153079 6.30099724 0.5153079 6.30099724 -1.62109375 9.19897461 C-4.79847402 11.60450973 -6.85143398 11.5308136 -10.8125 11.56640625 C-11.46323486 11.57260483 -12.11396973 11.57880341 -12.78442383 11.58518982 C-14.15607207 11.592273 -15.52780655 11.58913995 -16.89941406 11.57641602 C-18.99445088 11.56253676 -21.08502711 11.59664064 -23.1796875 11.63476562 C-24.51562609 11.63571683 -25.85157025 11.63385789 -27.1875 11.62890625 C-28.39792969 11.62963135 -29.60835937 11.63035645 -30.85546875 11.63110352 C-34 11 -34 11 -36.44140625 8.60522461 C-38 6 -38 6 -37.75 3.6875 C-37.5025 3.130625 -37.255 2.57375 -37 2 C-34 5.75 -34 5.75 -34 8 C-29.41687916 8.11605098 -24.83413551 8.18720362 -20.25 8.25 C-18.29707031 8.30027344 -18.29707031 8.30027344 -16.3046875 8.3515625 C-15.05429687 8.36445312 -13.80390625 8.37734375 -12.515625 8.390625 C-11.36352539 8.41157227 -10.21142578 8.43251953 -9.02441406 8.45410156 C-5.35591367 7.90329346 -4.26486004 6.86846973 -2 4 C-0.76487921 1.86690808 -0.76487921 1.86690808 0 0 Z " fill="#6E6E6E" transform="translate(45,34)"/>
<path d="M0 0 C2.96175123 0.61277612 4.38058783 1.25372522 7 3 C7 3.66 7 4.32 7 5 C7.9075 4.9175 8.815 4.835 9.75 4.75 C13 5 13 5 15.4375 6.625 C17 9 17 9 16.75 12.25 C16.5025 13.1575 16.255 14.065 16 15 C15.67 15 15.34 15 15 15 C14.835 14.05125 14.67 13.1025 14.5 12.125 C14.005 11.09375 13.51 10.0625 13 9 C9.48743556 7.95483011 9.48743556 7.95483011 7.04296875 7.55859375 C3.75812066 6.66044217 2.07281999 4.59102499 0 2 C0 1.34 0 0.68 0 0 Z " fill="#787772" transform="translate(28,23)"/>
</svg>
